<svg width="22" height="22" viewBox="0 0 22 22" fill="none" xmlns="http://www.w3.org/2000/svg">
<mask id="path-1-inside-1_33_16" fill="currentColor">
<path d="M11 22C13.9174 22 16.7153 20.8411 18.7782 18.7782C20.8411 16.7153 22 13.9174 22 11C22 8.0826 20.8411 5.28471 18.7782 3.22181C16.7153 1.15891 13.9174 -1.51716e-05 11 -1.57396e-05L11 11L11 22Z"/>
</mask>
<path d="M11 22C13.9174 22 16.7153 20.8411 18.7782 18.7782C20.8411 16.7153 22 13.9174 22 11C22 8.0826 20.8411 5.28471 18.7782 3.22181C16.7153 1.15891 13.9174 -1.51716e-05 11 -1.57396e-05L11 11L11 22Z" stroke="currentColor" stroke-width="5" mask="url(#path-1-inside-1_33_16)"/>
<path d="M11 1.31174e-07C8.08262 9.63843e-08 5.28473 1.15893 3.22183 3.22182C1.15893 5.28473 3.86219e-07 8.08262 1.31174e-07 11C-1.23872e-07 13.9174 1.15892 16.7153 3.22182 18.7782C5.28472 20.8411 8.08262 22 11 22L11 11L11 1.31174e-07Z" fill="currentColor"/>
</svg>
